<svg width="28" height="28" viewBox="0 0 28 28" fill="none" xmlns="http://www.w3.org/2000/svg">
<path d="M27.4496 22.2597L24.3462 20.1905L21.5873 18.3517C21.0549 17.9974 20.3393 18.1136 19.9463 18.6181L18.2392 20.8127C17.8725 21.2889 17.2128 21.4258 16.6869 21.1346C15.5286 20.4903 14.1588 19.8836 11.1365 16.8574C8.11418 13.8312 7.50363 12.4653 6.85928 11.307C6.56814 10.7811 6.70499 10.1214 7.18121 9.75479L9.37581 8.04767C9.88029 7.65466 9.99648 6.93913 9.64224 6.40665L7.85983 3.73277L5.73423 0.544345C5.37245 0.00164138 4.64822 -0.16129 4.0889 0.174141L1.63749 1.64479C0.974993 2.03511 0.488002 2.66541 0.277394 3.405C-0.392976 5.84913 -0.528132 11.2408 8.11271 19.8816C16.7535 28.5225 22.1447 28.3869 24.5889 27.7165C25.3284 27.5059 25.9587 27.0189 26.3491 26.3564L27.8197 23.905C28.1552 23.3456 27.9923 22.6215 27.4496 22.2597Z" fill="#DADADA"/>
<path d="M15.927 4.34377C20.4563 4.3488 24.1269 8.01935 24.132 12.5488C24.132 12.8153 24.3481 13.0315 24.6146 13.0315C24.8812 13.0315 25.0973 12.8154 25.0973 12.5488C25.0917 7.48649 20.9893 3.38406 15.927 3.37848C15.6605 3.37848 15.4443 3.59455 15.4443 3.86115C15.4443 4.12764 15.6604 4.34377 15.927 4.34377Z" fill="#DADADA"/>
<path d="M15.927 7.23963C18.8578 7.24308 21.2327 9.61805 21.2361 12.5487C21.2361 12.8153 21.4522 13.0314 21.7188 13.0314C21.9853 13.0314 22.2015 12.8153 22.2015 12.5487C22.1975 9.08513 19.3907 6.27828 15.927 6.27429C15.6605 6.27429 15.4443 6.49037 15.4443 6.75696C15.4443 7.02356 15.6604 7.23963 15.927 7.23963Z" fill="#DADADA"/>
<path d="M15.927 10.1355C17.2591 10.1371 18.3386 11.2166 18.3402 12.5488C18.3402 12.8153 18.5563 13.0315 18.8229 13.0315C19.0894 13.0315 19.3055 12.8154 19.3055 12.5488C19.3034 10.6838 17.792 9.17239 15.927 9.17026C15.6605 9.17026 15.4443 9.38633 15.4443 9.65293C15.4443 9.91947 15.6604 10.1355 15.927 10.1355Z" fill="#DADADA"/>
</svg>
