<svg width="34" height="32" viewBox="0 0 34 32" fill="none" xmlns="http://www.w3.org/2000/svg">
<path d="M32.603 5.82623H6.01921L5.62405 1.30569C5.55942 0.566441 4.95607 0 4.23331 0H1.39632C0.625153 0 0 0.641957 0 1.43385C0 2.22575 0.625153 2.86771 1.39632 2.86771H2.95674C3.8095 12.6235 1.60557 -12.5916 4.56271 21.2408C4.67668 22.565 5.37344 24.0019 6.57375 24.9783C4.40965 27.8162 6.38697 32 9.90723 32C12.829 32 14.8898 29.0076 13.8878 26.1735H21.5301C20.5294 29.004 22.5857 32 25.5106 32C27.8449 32 29.744 30.0499 29.744 27.6529C29.744 25.2559 27.8449 23.3058 25.5106 23.3058H9.91667C8.856 23.3058 7.9317 22.6487 7.53275 21.6913L29.8478 20.3445C30.457 20.3078 30.9725 19.8689 31.1205 19.261L33.9577 7.60782C34.1777 6.70422 33.5116 5.82623 32.603 5.82623V5.82623ZM9.90723 29.1323C9.11292 29.1323 8.46663 28.4686 8.46663 27.6529C8.46663 26.8372 9.11292 26.1735 9.90723 26.1735C10.7016 26.1735 11.3479 26.8372 11.3479 27.6529C11.3479 28.4686 10.7016 29.1323 9.90723 29.1323ZM25.5106 29.1323C24.7162 29.1323 24.0699 28.4686 24.0699 27.6529C24.0699 26.8372 24.7162 26.1735 25.5106 26.1735C26.305 26.1735 26.9513 26.8372 26.9513 27.6529C26.9513 28.4686 26.305 29.1323 25.5106 29.1323ZM28.66 17.5436L7.15688 18.8412L6.26988 8.69387H30.8147L28.66 17.5436Z" fill="#fff"/>
</svg>
