<svg width="20" height="19" viewBox="0 0 20 19" fill="none" xmlns="http://www.w3.org/2000/svg">
<path fill-rule="evenodd" clip-rule="evenodd" d="M19.5 5.00001H17.86L17 17C16.9967 18.1032 16.1032 18.9967 15 19H5C3.8968 18.9967 3.00329 18.1032 3 17L2.14 5.00001H1C0.603569 5.01314 0.227357 4.82503 0 4.50001V3.50001C0.227357 3.17499 0.603569 2.98689 1 3.00001H5V2.00001C5 0.895443 5.89543 1.23542e-05 7 1.23542e-05H13C13.531 -0.00185598 14.0408 0.208258 14.4163 0.583736C14.7918 0.959215 15.0019 1.46901 15 2.00001V3.00001H19.5C19.7761 3.00001 20 3.22387 20 3.50001V4.50001C20 4.77615 19.7761 5.00001 19.5 5.00001ZM12 2.00001H8C7.44772 2.00001 7 2.44773 7 3.00001H13C13 2.44773 12.5523 2.00001 12 2.00001ZM4 5.00001H16L15 16C15 16.5523 14.5523 17 14 17H6C5.44772 17 5 16.5523 5 16L4 5.00001ZM11.5 14C11.2239 14 11 13.7762 11 13.5V8.50001C11 8.22387 11.2239 8.00001 11.5 8.00001H12.5C12.7761 8.00001 13 8.22387 13 8.50001V13.5C13 13.7762 12.7761 14 12.5 14H11.5ZM7 13.5C7 13.7762 7.22386 14 7.5 14H8.5C8.77614 14 9 13.7762 9 13.5V8.50001C9 8.22387 8.77614 8.00001 8.5 8.00001H7.5C7.22386 8.00001 7 8.22387 7 8.50001V13.5Z" fill="#fff"/>
</svg>
