<svg width="16" height="16" viewBox="0 0 16 16" fill="none" xmlns="http://www.w3.org/2000/svg">
<path d="M9.6875 5.9375C9.515 5.9375 9.375 6.0775 9.375 6.25C9.375 6.4225 9.515 6.5625 9.6875 6.5625C9.86 6.5625 10 6.4225 10 6.25C10 6.0775 9.86 5.9375 9.6875 5.9375Z" fill="#A1A1A0"/>
<path d="M15.6338 13.8662L11.4625 9.69497C12.1421 8.67141 12.5 7.48609 12.5 6.25C12.5 2.80375 9.69625 0 6.25 0C2.80375 0 0 2.80375 0 6.25C0 9.69625 2.80375 12.5 6.25 12.5C7.48612 12.5 8.67144 12.142 9.69497 11.4626L10.8479 12.6155C10.8481 12.6157 10.8482 12.6158 10.8484 12.616L13.8662 15.6338C14.1024 15.8699 14.4162 16 14.75 16C15.0838 16 15.3976 15.8699 15.6337 15.6339C15.8699 15.3978 16 15.084 16 14.75C16 14.416 15.8699 14.1022 15.6338 13.8662ZM9.548 10.804C9.548 10.804 9.54797 10.804 9.54794 10.804C8.58334 11.5047 7.44297 11.875 6.25 11.875C3.14838 11.875 0.625 9.35163 0.625 6.25C0.625 3.14838 3.14838 0.625 6.25 0.625C9.35163 0.625 11.875 3.14838 11.875 6.25C11.875 7.44297 11.5047 8.58334 10.804 9.54797C10.4535 10.0309 10.0309 10.4535 9.548 10.804ZM10.2036 11.0873C10.5271 10.8227 10.8227 10.527 11.0873 10.2036L11.9739 11.0902C11.7043 11.4084 11.4084 11.7043 11.0902 11.9739L10.2036 11.0873ZM15.1918 15.1918C15.0737 15.31 14.9168 15.375 14.75 15.375C14.5832 15.375 14.4263 15.31 14.3082 15.1918L11.5333 12.417C11.8498 12.1454 12.1454 11.8498 12.417 11.5333L15.1919 14.3083C15.31 14.4262 15.375 14.5831 15.375 14.75C15.375 14.9169 15.31 15.0738 15.1918 15.1918Z" fill="#A1A1A0"/>
<path d="M6.25 1.25C3.49297 1.25 1.25 3.49297 1.25 6.25C1.25 9.00703 3.49297 11.25 6.25 11.25C9.00703 11.25 11.25 9.00703 11.25 6.25C11.25 3.49297 9.00703 1.25 6.25 1.25ZM6.25 10.625C3.83763 10.625 1.875 8.66237 1.875 6.25C1.875 3.83763 3.83763 1.875 6.25 1.875C8.66237 1.875 10.625 3.83763 10.625 6.25C10.625 8.66237 8.66237 10.625 6.25 10.625Z" fill="#A1A1A0"/>
<path d="M9.75203 4.90853C9.48294 4.20816 9.01441 3.60934 8.39703 3.17688C7.76497 2.73406 7.02253 2.5 6.25 2.5C6.07744 2.5 5.9375 2.63994 5.9375 2.8125C5.9375 2.98506 6.07744 3.125 6.25 3.125C7.53434 3.125 8.70722 3.93181 9.16863 5.13272C9.21638 5.25697 9.33478 5.33322 9.46041 5.33322C9.49766 5.33322 9.53556 5.3265 9.57241 5.31234C9.7335 5.25044 9.81394 5.06966 9.75203 4.90853Z" fill="#A1A1A0"/>
</svg>
