<svg width="21" height="17" viewBox="0 0 21 17" fill="none" xmlns="http://www.w3.org/2000/svg">
<path d="M17.953 3.98034C17.962 4.15034 17.966 4.33034 17.966 4.51034C17.9637 7.58951 16.7266 10.5391 14.5318 12.6988C12.337 14.8585 9.36781 16.0477 6.289 16.0003C4.06389 16.0024 1.8836 15.3749 0 14.1903C0.319 14.2203 0.647 14.2403 0.978 14.2403C2.82249 14.2432 4.61594 13.6348 6.078 12.5103C4.33164 12.4861 2.79235 11.3582 2.243 9.70034C2.49675 9.75224 2.755 9.77903 3.014 9.78034C3.37916 9.77997 3.74277 9.73293 4.096 9.64034C2.19547 9.27277 0.817783 7.61602 0.803 5.68034C0.801167 5.66372 0.801167 5.64695 0.803 5.63034C1.37468 5.94008 2.01108 6.11134 2.661 6.13034C1.52428 5.39052 0.838149 4.1266 0.837 2.77034C0.835365 2.05611 1.02678 1.35472 1.391 0.740336C3.4938 3.27032 6.56208 4.80137 9.848 4.96034C9.78066 4.65833 9.74712 4.34976 9.748 4.04034C9.76616 1.79321 11.6008 -0.0146336 13.848 0.000336445C14.9775 -0.00257614 16.0591 0.456222 16.842 1.27034C17.7614 1.09656 18.6437 0.764997 19.45 0.290336C19.1427 1.23125 18.5027 2.02772 17.65 2.53034C18.4622 2.43248 19.2559 2.21689 20.006 1.89034C19.4521 2.70412 18.7568 3.41199 17.953 3.98034Z" fill="#3D3D3D"/>
</svg>
